<svg width="21" height="21" viewBox="0 0 21 21" fill="none" xmlns="http://www.w3.org/2000/svg">
<path fill-rule="evenodd" clip-rule="evenodd" d="M15.6763 18.2231C15.9227 18.3941 16.2401 18.4368 16.5232 18.3318C16.8063 18.2261 17.0144 17.9891 17.0771 17.7018C17.7419 14.6388 19.3546 6.88604 19.9597 4.09978C20.0056 3.88978 19.9291 3.67153 19.7608 3.53128C19.5925 3.39103 19.3592 3.35053 19.1511 3.42628C15.9433 4.59028 6.06452 8.22404 2.0267 9.68879C1.77042 9.78179 1.60364 10.0233 1.61206 10.288C1.62124 10.5536 1.80331 10.7838 2.06572 10.8611C3.87654 11.3921 6.25349 12.1308 6.25349 12.1308C6.25349 12.1308 7.3643 15.4196 7.94343 17.0921C8.01611 17.3021 8.18365 17.4671 8.40475 17.5241C8.62507 17.5803 8.8607 17.5211 9.02518 17.3688C9.95545 16.5078 11.3937 15.1766 11.3937 15.1766C11.3937 15.1766 14.1264 17.1408 15.6763 18.2231ZM7.25337 11.7153L8.53785 15.8688L8.82322 13.2386C8.82322 13.2386 13.786 8.85029 16.615 6.34903C16.6976 6.27553 16.7092 6.15253 16.6403 6.06628C16.5722 5.98003 16.4467 5.95978 16.3526 6.01828C13.0737 8.07104 7.25337 11.7153 7.25337 11.7153Z" fill="#212433"/>
</svg>
