<svg width="174" height="73" viewBox="0 0 174 73" fill="none" xmlns="http://www.w3.org/2000/svg">
<path d="M4.312 69.099C3.54933 69.099 2.89667 68.9377 2.354 68.615C1.81133 68.2923 1.39333 67.834 1.1 67.24C0.814 66.646 0.671 65.9383 0.671 65.117C0.671 64.501 0.751667 63.951 0.913 63.467C1.08167 62.9757 1.32 62.5613 1.628 62.224C1.94333 61.8793 2.32833 61.6153 2.783 61.432C3.23767 61.2413 3.74733 61.146 4.312 61.146C4.76667 61.146 5.19933 61.212 5.61 61.344C6.02067 61.4687 6.37633 61.6557 6.677 61.905C6.77233 61.9783 6.83467 62.0627 6.864 62.158C6.90067 62.246 6.90433 62.334 6.875 62.422C6.853 62.5027 6.809 62.5723 6.743 62.631C6.68433 62.6823 6.611 62.708 6.523 62.708C6.435 62.708 6.336 62.6713 6.226 62.598C5.962 62.3853 5.67233 62.2277 5.357 62.125C5.04167 62.0223 4.70067 61.971 4.334 61.971C3.75467 61.971 3.26333 62.0957 2.86 62.345C2.45667 62.587 2.15233 62.9427 1.947 63.412C1.74167 63.8813 1.639 64.4497 1.639 65.117C1.639 65.7843 1.74167 66.3563 1.947 66.833C2.15233 67.3023 2.45667 67.6617 2.86 67.911C3.26333 68.153 3.75467 68.274 4.334 68.274C4.69333 68.274 5.03433 68.2227 5.357 68.12C5.67967 68.01 5.97667 67.8487 6.248 67.636C6.358 67.5627 6.457 67.5297 6.545 67.537C6.633 67.537 6.70633 67.5627 6.765 67.614C6.82367 67.6653 6.864 67.7313 6.886 67.812C6.91533 67.8927 6.91533 67.977 6.886 68.065C6.864 68.153 6.809 68.23 6.721 68.296C6.413 68.56 6.05 68.7617 5.632 68.901C5.22133 69.033 4.78133 69.099 4.312 69.099ZM11.4962 69.099C10.7775 69.099 10.1505 68.9377 9.6152 68.615C9.0872 68.285 8.67654 67.823 8.3832 67.229C8.0972 66.635 7.9542 65.931 7.9542 65.117C7.9542 64.501 8.03487 63.951 8.1962 63.467C8.36487 62.9757 8.6032 62.5613 8.9112 62.224C9.2192 61.8793 9.58954 61.6153 10.0222 61.432C10.4622 61.2413 10.9535 61.146 11.4962 61.146C12.2295 61.146 12.8602 61.3073 13.3882 61.63C13.9235 61.9527 14.3342 62.411 14.6202 63.005C14.9135 63.5917 15.0602 64.292 15.0602 65.106C15.0602 65.722 14.9759 66.2757 14.8072 66.767C14.6385 67.2583 14.4002 67.6763 14.0922 68.021C13.7842 68.3657 13.4102 68.6333 12.9702 68.824C12.5375 69.0073 12.0462 69.099 11.4962 69.099ZM11.4962 68.296C12.0535 68.296 12.5229 68.1713 12.9042 67.922C13.2929 67.6727 13.5899 67.3097 13.7952 66.833C14.0005 66.3563 14.1032 65.7843 14.1032 65.117C14.1032 64.1123 13.8759 63.335 13.4212 62.785C12.9739 62.2277 12.3322 61.949 11.4962 61.949C10.9535 61.949 10.4879 62.0737 10.0992 62.323C9.71787 62.5723 9.42454 62.9353 9.2192 63.412C9.01387 63.8813 8.9112 64.4497 8.9112 65.117C8.9112 66.1143 9.13854 66.8953 9.5932 67.46C10.0479 68.0173 10.6822 68.296 11.4962 68.296ZM19.1478 69.099C18.5685 69.099 18.0368 69.0257 17.5528 68.879C17.0762 68.7323 16.6765 68.527 16.3538 68.263C16.2658 68.197 16.2072 68.1237 16.1778 68.043C16.1558 67.9623 16.1522 67.8817 16.1668 67.801C16.1888 67.7203 16.2292 67.6543 16.2878 67.603C16.3465 67.5517 16.4162 67.5223 16.4968 67.515C16.5848 67.5077 16.6765 67.537 16.7718 67.603C16.9845 67.757 17.2082 67.8853 17.4428 67.988C17.6848 68.0907 17.9415 68.1677 18.2128 68.219C18.4915 68.2703 18.7848 68.296 19.0928 68.296C19.5695 68.296 19.9582 68.241 20.2588 68.131C20.5668 68.021 20.7942 67.8597 20.9408 67.647C21.0875 67.427 21.1608 67.1557 21.1608 66.833C21.1608 66.3563 21.0142 66.008 20.7208 65.788C20.4348 65.5607 19.9948 65.447 19.4008 65.447H17.8388C17.7142 65.447 17.6152 65.414 17.5418 65.348C17.4685 65.282 17.4318 65.1903 17.4318 65.073C17.4318 64.9483 17.4685 64.8567 17.5418 64.798C17.6152 64.732 17.7142 64.699 17.8388 64.699H19.2248C19.8042 64.699 20.2405 64.5853 20.5338 64.358C20.8272 64.1307 20.9738 63.797 20.9738 63.357C20.9738 63.0637 20.9042 62.8107 20.7648 62.598C20.6255 62.3853 20.4165 62.224 20.1378 62.114C19.8665 62.004 19.5218 61.949 19.1038 61.949C18.7152 61.949 18.3375 62.0003 17.9708 62.103C17.6115 62.2057 17.2778 62.3707 16.9698 62.598C16.8745 62.6567 16.7828 62.686 16.6948 62.686C16.6142 62.6787 16.5445 62.6493 16.4858 62.598C16.4272 62.5393 16.3868 62.4697 16.3648 62.389C16.3502 62.3083 16.3575 62.2277 16.3868 62.147C16.4162 62.0663 16.4748 61.9967 16.5628 61.938C16.9148 61.6667 17.3182 61.4687 17.7728 61.344C18.2348 61.212 18.7005 61.146 19.1698 61.146C19.7785 61.146 20.2808 61.234 20.6768 61.41C21.0802 61.586 21.3808 61.8317 21.5788 62.147C21.7842 62.4623 21.8868 62.8363 21.8868 63.269C21.8868 63.753 21.7438 64.1563 21.4578 64.479C21.1792 64.8017 20.7978 65.0143 20.3138 65.117V64.963C20.8565 65.029 21.2855 65.227 21.6008 65.557C21.9162 65.887 22.0738 66.3233 22.0738 66.866C22.0738 67.328 21.9675 67.7277 21.7548 68.065C21.5422 68.395 21.2195 68.6517 20.7868 68.835C20.3615 69.011 19.8152 69.099 19.1478 69.099ZM23.3674 70.804C23.2354 70.804 23.1328 70.7673 23.0594 70.694C22.9934 70.6207 22.9604 70.5143 22.9604 70.375V68.692C22.9604 68.3913 23.1108 68.241 23.4114 68.241H24.1264L23.5874 68.395C24.0128 67.9257 24.3281 67.273 24.5334 66.437C24.7388 65.5937 24.8414 64.5303 24.8414 63.247V61.74C24.8414 61.5787 24.8818 61.4577 24.9624 61.377C25.0504 61.289 25.1751 61.245 25.3364 61.245H29.4944C29.6484 61.245 29.7694 61.289 29.8574 61.377C29.9454 61.4577 29.9894 61.5787 29.9894 61.74V68.604L29.6264 68.241H30.6274C30.7741 68.241 30.8878 68.2813 30.9684 68.362C31.0491 68.4353 31.0894 68.5453 31.0894 68.692V70.375C31.0894 70.661 30.9538 70.804 30.6824 70.804C30.5431 70.804 30.4368 70.7673 30.3634 70.694C30.2974 70.6207 30.2644 70.5143 30.2644 70.375V69H23.7744V70.375C23.7744 70.661 23.6388 70.804 23.3674 70.804ZM24.6654 68.241H29.0764V62.004H25.6884V63.313C25.6884 64.4937 25.6041 65.48 25.4354 66.272C25.2741 67.064 25.0174 67.7203 24.6654 68.241ZM32.127 69.077C32.0096 69.077 31.9143 69.0513 31.841 69C31.775 68.9413 31.7346 68.868 31.72 68.78C31.7126 68.6847 31.7346 68.5783 31.786 68.461L34.811 61.575C34.877 61.4283 34.954 61.3257 35.042 61.267C35.1373 61.201 35.24 61.168 35.35 61.168C35.46 61.168 35.559 61.201 35.647 61.267C35.7423 61.3257 35.8193 61.4283 35.878 61.575L38.914 68.461C38.9726 68.5783 38.9946 68.6847 38.98 68.78C38.9726 68.8753 38.936 68.9487 38.87 69C38.804 69.0513 38.7123 69.077 38.595 69.077C38.463 69.077 38.3566 69.044 38.276 68.978C38.1953 68.9047 38.1293 68.802 38.078 68.67L37.264 66.789L37.704 67.02H32.974L33.425 66.789L32.622 68.67C32.556 68.8093 32.4863 68.912 32.413 68.978C32.3396 69.044 32.2443 69.077 32.127 69.077ZM35.339 62.301L33.568 66.47L33.304 66.261H37.374L37.132 66.47L35.361 62.301H35.339ZM40.8006 69C40.6393 69 40.5146 68.9597 40.4266 68.879C40.346 68.791 40.3056 68.6663 40.3056 68.505V61.74C40.3056 61.5787 40.346 61.4577 40.4266 61.377C40.5146 61.289 40.6393 61.245 40.8006 61.245H43.4076C43.943 61.245 44.394 61.3257 44.7606 61.487C45.1346 61.641 45.4206 61.8683 45.6186 62.169C45.8166 62.4697 45.9156 62.8363 45.9156 63.269C45.9156 63.753 45.7726 64.1563 45.4866 64.479C45.208 64.8017 44.8266 65.0143 44.3426 65.117V64.963C44.8926 65.029 45.3216 65.227 45.6296 65.557C45.945 65.887 46.1026 66.3233 46.1026 66.866C46.1026 67.5553 45.879 68.0833 45.4316 68.45C44.9843 68.8167 44.3536 69 43.5396 69H40.8006ZM41.1856 68.274H43.4516C44.0383 68.274 44.4783 68.1567 44.7716 67.922C45.065 67.6873 45.2116 67.3317 45.2116 66.855C45.2116 66.371 45.065 66.0153 44.7716 65.788C44.4783 65.5533 44.0383 65.436 43.4516 65.436H41.1856V68.274ZM41.1856 64.71H43.2756C43.8476 64.71 44.2803 64.5927 44.5736 64.358C44.8743 64.1233 45.0246 63.786 45.0246 63.346C45.0246 62.8913 44.8743 62.5503 44.5736 62.323C44.2803 62.0883 43.8476 61.971 43.2756 61.971H41.1856V64.71ZM47.4668 69.077C47.3495 69.077 47.2541 69.0513 47.1808 69C47.1148 68.9413 47.0745 68.868 47.0598 68.78C47.0525 68.6847 47.0745 68.5783 47.1258 68.461L50.1508 61.575C50.2168 61.4283 50.2938 61.3257 50.3818 61.267C50.4771 61.201 50.5798 61.168 50.6898 61.168C50.7998 61.168 50.8988 61.201 50.9868 61.267C51.0821 61.3257 51.1591 61.4283 51.2178 61.575L54.2538 68.461C54.3125 68.5783 54.3345 68.6847 54.3198 68.78C54.3125 68.8753 54.2758 68.9487 54.2098 69C54.1438 69.0513 54.0521 69.077 53.9348 69.077C53.8028 69.077 53.6965 69.044 53.6158 68.978C53.5351 68.9047 53.4691 68.802 53.4178 68.67L52.6038 66.789L53.0438 67.02H48.3138L48.7648 66.789L47.9618 68.67C47.8958 68.8093 47.8261 68.912 47.7528 68.978C47.6795 69.044 47.5841 69.077 47.4668 69.077ZM50.6788 62.301L48.9078 66.47L48.6438 66.261H52.7138L52.4718 66.47L50.7008 62.301H50.6788ZM57.0971 69.077C56.9578 69.077 56.8478 69.0367 56.7671 68.956C56.6865 68.868 56.6461 68.7507 56.6461 68.604V62.026H54.1711C54.0391 62.026 53.9365 61.9893 53.8631 61.916C53.7898 61.8427 53.7531 61.7473 53.7531 61.63C53.7531 61.5053 53.7898 61.41 53.8631 61.344C53.9365 61.278 54.0391 61.245 54.1711 61.245H60.0341C60.1661 61.245 60.2688 61.278 60.3421 61.344C60.4155 61.41 60.4521 61.5053 60.4521 61.63C60.4521 61.7547 60.4155 61.8537 60.3421 61.927C60.2688 61.993 60.1661 62.026 60.0341 62.026H57.5591V68.604C57.5591 68.7507 57.5188 68.868 57.4381 68.956C57.3648 69.0367 57.2511 69.077 57.0971 69.077ZM61.8553 69C61.694 69 61.5693 68.9597 61.4813 68.879C61.4007 68.791 61.3603 68.6663 61.3603 68.505V61.641C61.3603 61.487 61.397 61.3697 61.4703 61.289C61.551 61.2083 61.6647 61.168 61.8113 61.168C61.958 61.168 62.068 61.2083 62.1413 61.289C62.222 61.3697 62.2623 61.487 62.2623 61.641V64.666H64.5943C65.137 64.666 65.599 64.7467 65.9803 64.908C66.3617 65.0693 66.6513 65.3113 66.8493 65.634C67.0547 65.9493 67.1573 66.3453 67.1573 66.822C67.1573 67.5333 66.9337 68.076 66.4863 68.45C66.039 68.8167 65.4083 69 64.5943 69H61.8553ZM62.2623 68.241H64.5063C65.093 68.241 65.533 68.1273 65.8263 67.9C66.1197 67.6653 66.2663 67.306 66.2663 66.822C66.2663 66.3453 66.1197 65.9933 65.8263 65.766C65.533 65.5387 65.093 65.425 64.5063 65.425H62.2623V68.241ZM74.813 69.099C74.0503 69.099 73.3976 68.9377 72.855 68.615C72.3123 68.2923 71.8943 67.834 71.601 67.24C71.315 66.646 71.172 65.9383 71.172 65.117C71.172 64.501 71.2526 63.951 71.414 63.467C71.5826 62.9757 71.821 62.5613 72.129 62.224C72.4443 61.8793 72.8293 61.6153 73.284 61.432C73.7386 61.2413 74.2483 61.146 74.813 61.146C75.2676 61.146 75.7003 61.212 76.111 61.344C76.5216 61.4687 76.8773 61.6557 77.178 61.905C77.2733 61.9783 77.3356 62.0627 77.365 62.158C77.4016 62.246 77.4053 62.334 77.376 62.422C77.354 62.5027 77.31 62.5723 77.244 62.631C77.1853 62.6823 77.112 62.708 77.024 62.708C76.936 62.708 76.837 62.6713 76.727 62.598C76.463 62.3853 76.1733 62.2277 75.858 62.125C75.5426 62.0223 75.2016 61.971 74.835 61.971C74.2556 61.971 73.7643 62.0957 73.361 62.345C72.9576 62.587 72.6533 62.9427 72.448 63.412C72.2426 63.8813 72.14 64.4497 72.14 65.117C72.14 65.7843 72.2426 66.3563 72.448 66.833C72.6533 67.3023 72.9576 67.6617 73.361 67.911C73.7643 68.153 74.2556 68.274 74.835 68.274C75.1943 68.274 75.5353 68.2227 75.858 68.12C76.1806 68.01 76.4776 67.8487 76.749 67.636C76.859 67.5627 76.958 67.5297 77.046 67.537C77.134 67.537 77.2073 67.5627 77.266 67.614C77.3246 67.6653 77.365 67.7313 77.387 67.812C77.4163 67.8927 77.4163 67.977 77.387 68.065C77.365 68.153 77.31 68.23 77.222 68.296C76.914 68.56 76.551 68.7617 76.133 68.901C75.7223 69.033 75.2823 69.099 74.813 69.099ZM78.501 69.077C78.3837 69.077 78.2883 69.0513 78.215 69C78.149 68.9413 78.1087 68.868 78.094 68.78C78.0867 68.6847 78.1087 68.5783 78.16 68.461L81.185 61.575C81.251 61.4283 81.328 61.3257 81.416 61.267C81.5113 61.201 81.614 61.168 81.724 61.168C81.834 61.168 81.933 61.201 82.021 61.267C82.1163 61.3257 82.1933 61.4283 82.252 61.575L85.288 68.461C85.3467 68.5783 85.3687 68.6847 85.354 68.78C85.3467 68.8753 85.31 68.9487 85.244 69C85.178 69.0513 85.0863 69.077 84.969 69.077C84.837 69.077 84.7307 69.044 84.65 68.978C84.5693 68.9047 84.5033 68.802 84.452 68.67L83.638 66.789L84.078 67.02H79.348L79.799 66.789L78.996 68.67C78.93 68.8093 78.8603 68.912 78.787 68.978C78.7137 69.044 78.6183 69.077 78.501 69.077ZM81.713 62.301L79.942 66.47L79.678 66.261H83.748L83.506 66.47L81.735 62.301H81.713ZM87.0647 69.077C87.006 69.077 86.951 69.066 86.8997 69.044C86.8557 69.0293 86.8153 69 86.7787 68.956C86.7493 68.912 86.7237 68.8643 86.7017 68.813C86.687 68.7543 86.6797 68.6847 86.6797 68.604V61.608C86.6797 61.4687 86.7163 61.3623 86.7897 61.289C86.863 61.2083 86.9693 61.168 87.1087 61.168C87.2407 61.168 87.3433 61.2083 87.4167 61.289C87.49 61.3623 87.5267 61.4687 87.5267 61.608V67.834H87.2847L92.0587 61.443C92.1247 61.3403 92.1907 61.2707 92.2567 61.234C92.33 61.19 92.4217 61.168 92.5317 61.168C92.6123 61.168 92.6783 61.1863 92.7297 61.223C92.781 61.2523 92.8213 61.3 92.8507 61.366C92.88 61.432 92.8947 61.5127 92.8947 61.608V68.626C92.8947 68.7727 92.858 68.8863 92.7847 68.967C92.7187 69.0403 92.6197 69.077 92.4877 69.077C92.3483 69.077 92.242 69.0403 92.1687 68.967C92.0953 68.8863 92.0587 68.7727 92.0587 68.626V62.411H92.3007L87.5267 68.802C87.4533 68.8973 87.3873 68.967 87.3287 69.011C87.27 69.055 87.182 69.077 87.0647 69.077ZM89.7927 60.64C89.3527 60.64 88.9567 60.541 88.6047 60.343C88.2527 60.145 87.985 59.8443 87.8017 59.441C87.7577 59.331 87.7503 59.243 87.7797 59.177C87.809 59.1037 87.864 59.0523 87.9447 59.023C88.0253 58.9937 88.0987 58.9937 88.1647 59.023C88.2307 59.0523 88.2857 59.1147 88.3297 59.21C88.469 59.4887 88.6597 59.7013 88.9017 59.848C89.1437 59.9947 89.4407 60.068 89.7927 60.068C90.152 60.068 90.449 59.9947 90.6837 59.848C90.9257 59.7013 91.1163 59.4887 91.2557 59.21C91.307 59.1147 91.362 59.0523 91.4207 59.023C91.4867 58.9937 91.56 58.9937 91.6407 59.023C91.7287 59.0523 91.7837 59.1037 91.8057 59.177C91.835 59.243 91.824 59.331 91.7727 59.441C91.582 59.8443 91.3107 60.145 90.9587 60.343C90.6067 60.541 90.218 60.64 89.7927 60.64ZM97.1762 69.077C97.0369 69.077 96.9269 69.0367 96.8462 68.956C96.7656 68.868 96.7252 68.7507 96.7252 68.604V62.026H94.2502C94.1182 62.026 94.0156 61.9893 93.9422 61.916C93.8689 61.8427 93.8322 61.7473 93.8322 61.63C93.8322 61.5053 93.8689 61.41 93.9422 61.344C94.0156 61.278 94.1182 61.245 94.2502 61.245H100.113C100.245 61.245 100.348 61.278 100.421 61.344C100.495 61.41 100.531 61.5053 100.531 61.63C100.531 61.7547 100.495 61.8537 100.421 61.927C100.348 61.993 100.245 62.026 100.113 62.026H97.6382V68.604C97.6382 68.7507 97.5979 68.868 97.5172 68.956C97.4439 69.0367 97.3302 69.077 97.1762 69.077ZM101.934 69C101.773 69 101.648 68.9597 101.56 68.879C101.48 68.791 101.439 68.6663 101.439 68.505V61.641C101.439 61.487 101.476 61.3697 101.549 61.289C101.63 61.2083 101.744 61.168 101.89 61.168C102.037 61.168 102.147 61.2083 102.22 61.289C102.301 61.3697 102.341 61.487 102.341 61.641V64.666H104.343C104.886 64.666 105.348 64.7467 105.729 64.908C106.111 65.0693 106.4 65.3113 106.598 65.634C106.804 65.9493 106.906 66.3453 106.906 66.822C106.906 67.5333 106.683 68.076 106.235 68.45C105.788 68.8167 105.157 69 104.343 69H101.934ZM102.341 68.241H104.255C104.842 68.241 105.282 68.1273 105.575 67.9C105.869 67.6653 106.015 67.306 106.015 66.822C106.015 66.3453 105.869 65.9933 105.575 65.766C105.282 65.5387 104.842 65.425 104.255 65.425H102.341V68.241ZM108.468 69.077C108.322 69.077 108.208 69.0367 108.127 68.956C108.054 68.868 108.017 68.7507 108.017 68.604V61.641C108.017 61.487 108.054 61.3697 108.127 61.289C108.208 61.2083 108.322 61.168 108.468 61.168C108.615 61.168 108.725 61.2083 108.798 61.289C108.879 61.3697 108.919 61.487 108.919 61.641V68.604C108.919 68.7507 108.883 68.868 108.809 68.956C108.736 69.0367 108.622 69.077 108.468 69.077ZM112.17 67.02C112.075 67.02 112.001 66.9907 111.95 66.932C111.899 66.866 111.873 66.778 111.873 66.668C111.873 66.4113 111.902 66.173 111.961 65.953C112.027 65.7257 112.126 65.4947 112.258 65.26C112.397 65.0253 112.584 64.7723 112.819 64.501C113.002 64.281 113.149 64.0867 113.259 63.918C113.369 63.7493 113.446 63.588 113.49 63.434C113.541 63.2727 113.567 63.1113 113.567 62.95C113.567 62.642 113.457 62.4 113.237 62.224C113.017 62.0407 112.713 61.949 112.324 61.949C111.987 61.949 111.675 62.0003 111.389 62.103C111.11 62.1983 110.839 62.345 110.575 62.543C110.465 62.6163 110.362 62.653 110.267 62.653C110.179 62.653 110.106 62.6273 110.047 62.576C109.988 62.5247 109.948 62.4587 109.926 62.378C109.911 62.2973 109.922 62.213 109.959 62.125C110.003 62.037 110.076 61.9563 110.179 61.883C110.465 61.6557 110.802 61.476 111.191 61.344C111.58 61.212 111.972 61.146 112.368 61.146C112.786 61.146 113.153 61.2193 113.468 61.366C113.791 61.5053 114.04 61.707 114.216 61.971C114.392 62.2277 114.48 62.532 114.48 62.884C114.48 63.1113 114.447 63.3313 114.381 63.544C114.315 63.7493 114.209 63.9583 114.062 64.171C113.923 64.3837 113.725 64.6257 113.468 64.897C113.241 65.1317 113.057 65.3517 112.918 65.557C112.779 65.755 112.672 65.9493 112.599 66.14C112.533 66.3233 112.489 66.5177 112.467 66.723C112.46 66.811 112.43 66.8843 112.379 66.943C112.328 66.9943 112.258 67.02 112.17 67.02ZM112.159 69.044C111.976 69.044 111.825 68.989 111.708 68.879C111.598 68.7617 111.543 68.615 111.543 68.439C111.543 68.263 111.598 68.12 111.708 68.01C111.825 67.8927 111.976 67.834 112.159 67.834C112.342 67.834 112.485 67.8927 112.588 68.01C112.698 68.12 112.753 68.263 112.753 68.439C112.753 68.615 112.698 68.7617 112.588 68.879C112.485 68.989 112.342 69.044 112.159 69.044ZM124.327 69.077C124.18 69.077 124.067 69.0367 123.986 68.956C123.905 68.868 123.865 68.7507 123.865 68.604V62.026H120.477V63.808C120.477 64.5487 120.433 65.2013 120.345 65.766C120.264 66.3233 120.14 66.811 119.971 67.229C119.81 67.6397 119.604 67.988 119.355 68.274C119.113 68.56 118.831 68.802 118.508 69C118.391 69.0807 118.277 69.11 118.167 69.088C118.057 69.066 117.965 68.9963 117.892 68.879C117.819 68.7617 117.797 68.6517 117.826 68.549C117.863 68.4463 117.94 68.3583 118.057 68.285C118.306 68.131 118.526 67.9367 118.717 67.702C118.915 67.4673 119.08 67.174 119.212 66.822C119.351 66.4627 119.458 66.019 119.531 65.491C119.604 64.963 119.641 64.325 119.641 63.577V61.74C119.641 61.5787 119.681 61.4577 119.762 61.377C119.85 61.289 119.975 61.245 120.136 61.245H124.283C124.437 61.245 124.558 61.289 124.646 61.377C124.734 61.4577 124.778 61.5787 124.778 61.74V68.604C124.778 68.7507 124.738 68.868 124.657 68.956C124.576 69.0367 124.466 69.077 124.327 69.077ZM127.189 69C127.028 69 126.903 68.9597 126.815 68.879C126.735 68.791 126.694 68.6663 126.694 68.505V61.74C126.694 61.5787 126.735 61.4577 126.815 61.377C126.903 61.289 127.028 61.245 127.189 61.245H131.281C131.406 61.245 131.501 61.278 131.567 61.344C131.633 61.41 131.666 61.5017 131.666 61.619C131.666 61.7437 131.633 61.839 131.567 61.905C131.501 61.971 131.406 62.004 131.281 62.004H127.574V64.688H131.05C131.175 64.688 131.27 64.721 131.336 64.787C131.402 64.8457 131.435 64.9373 131.435 65.062C131.435 65.1867 131.402 65.282 131.336 65.348C131.27 65.414 131.175 65.447 131.05 65.447H127.574V68.241H131.281C131.406 68.241 131.501 68.274 131.567 68.34C131.633 68.406 131.666 68.4977 131.666 68.615C131.666 68.7397 131.633 68.835 131.567 68.901C131.501 68.967 131.406 69 131.281 69H127.189ZM133.558 69.077C133.412 69.077 133.298 69.0367 133.217 68.956C133.144 68.868 133.107 68.7507 133.107 68.604V61.718C133.107 61.564 133.148 61.4467 133.228 61.366C133.309 61.2853 133.426 61.245 133.58 61.245H137.617C137.757 61.245 137.859 61.278 137.925 61.344C137.999 61.41 138.035 61.509 138.035 61.641C138.035 61.7583 137.999 61.8537 137.925 61.927C137.859 61.993 137.757 62.026 137.617 62.026H134.009V68.604C134.009 68.7507 133.973 68.868 133.899 68.956C133.826 69.0367 133.712 69.077 133.558 69.077ZM139.52 69.077C139.374 69.077 139.26 69.0367 139.179 68.956C139.106 68.868 139.069 68.7507 139.069 68.604V61.63C139.069 61.476 139.106 61.3623 139.179 61.289C139.26 61.2083 139.374 61.168 139.52 61.168C139.667 61.168 139.777 61.2083 139.85 61.289C139.931 61.3623 139.971 61.476 139.971 61.63V64.699H141.489L141.225 64.875L143.513 61.41C143.579 61.3073 143.656 61.2413 143.744 61.212C143.832 61.1753 143.92 61.168 144.008 61.19C144.096 61.2047 144.17 61.245 144.228 61.311C144.287 61.3697 144.32 61.4467 144.327 61.542C144.342 61.63 144.316 61.7253 144.25 61.828L142.105 65.029L141.764 64.732C142.212 64.7833 142.593 64.941 142.908 65.205C143.224 65.469 143.499 65.8357 143.733 66.305L144.778 68.439C144.837 68.5563 144.855 68.6627 144.833 68.758C144.811 68.846 144.764 68.9157 144.69 68.967C144.617 69.0183 144.533 69.0477 144.437 69.055C144.349 69.0697 144.261 69.055 144.173 69.011C144.085 68.967 144.016 68.89 143.964 68.78L142.985 66.723C142.765 66.2757 142.516 65.9567 142.237 65.766C141.966 65.5753 141.629 65.48 141.225 65.48H139.971V68.604C139.971 68.7507 139.935 68.868 139.861 68.956C139.788 69.0367 139.674 69.077 139.52 69.077ZM149.308 69.099C148.589 69.099 147.962 68.9377 147.427 68.615C146.899 68.285 146.488 67.823 146.195 67.229C145.909 66.635 145.766 65.931 145.766 65.117C145.766 64.501 145.846 63.951 146.008 63.467C146.176 62.9757 146.415 62.5613 146.723 62.224C147.031 61.8793 147.401 61.6153 147.834 61.432C148.274 61.2413 148.765 61.146 149.308 61.146C150.041 61.146 150.672 61.3073 151.2 61.63C151.735 61.9527 152.146 62.411 152.432 63.005C152.725 63.5917 152.872 64.292 152.872 65.106C152.872 65.722 152.787 66.2757 152.619 66.767C152.45 67.2583 152.212 67.6763 151.904 68.021C151.596 68.3657 151.222 68.6333 150.782 68.824C150.349 69.0073 149.858 69.099 149.308 69.099ZM149.308 68.296C149.865 68.296 150.334 68.1713 150.716 67.922C151.104 67.6727 151.401 67.3097 151.607 66.833C151.812 66.3563 151.915 65.7843 151.915 65.117C151.915 64.1123 151.687 63.335 151.233 62.785C150.785 62.2277 150.144 61.949 149.308 61.949C148.765 61.949 148.299 62.0737 147.911 62.323C147.529 62.5723 147.236 62.9353 147.031 63.412C146.825 63.8813 146.723 64.4497 146.723 65.117C146.723 66.1143 146.95 66.8953 147.405 67.46C147.859 68.0173 148.494 68.296 149.308 68.296ZM154.792 67.031C154.704 67.031 154.631 67.0017 154.572 66.943C154.521 66.8843 154.492 66.7963 154.484 66.679L154.264 61.751C154.257 61.575 154.297 61.4357 154.385 61.333C154.481 61.223 154.616 61.168 154.792 61.168C154.961 61.168 155.089 61.223 155.177 61.333C155.265 61.4357 155.306 61.575 155.298 61.751L155.078 66.679C155.078 66.7963 155.053 66.8843 155.001 66.943C154.95 67.0017 154.88 67.031 154.792 67.031ZM154.792 69.044C154.609 69.044 154.462 68.989 154.352 68.879C154.242 68.7617 154.187 68.615 154.187 68.439C154.187 68.263 154.242 68.12 154.352 68.01C154.462 67.8927 154.609 67.834 154.792 67.834C154.976 67.834 155.119 67.8927 155.221 68.01C155.331 68.12 155.386 68.263 155.386 68.439C155.386 68.615 155.331 68.7617 155.221 68.879C155.119 68.989 154.976 69.044 154.792 69.044Z" fill="black"/>
<path d="M2 23V9.325L1.5 6.825L2 5.3H9.45C10.65 5.3 11.8 5.41667 12.9 5.65C14.0167 5.86667 15.0083 6.28333 15.875 6.9C16.7583 7.51667 17.45 8.4 17.95 9.55C18.4667 10.7 18.725 12.1917 18.725 14.025C18.725 15.8583 18.4667 17.3667 17.95 18.55C17.4333 19.7167 16.7333 20.625 15.85 21.275C14.9667 21.925 13.9667 22.375 12.85 22.625C11.75 22.875 10.6167 23 9.45 23H2ZM6.55 19H9.45C10.9167 19 12.0417 18.6167 12.825 17.85C13.6083 17.0667 14 15.7917 14 14.025C14 12.2583 13.6 11.0333 12.8 10.35C12.0167 9.65 10.9 9.3 9.45 9.3H6.55V19Z" fill="url(#paint0_linear_230_6)"/>
<path d="M21.4766 23V9.3L21.2266 6.8L21.4766 5.3H26.0016V23H21.4766ZM37.9652 23.25C36.6819 23.25 35.4652 23.125 34.3152 22.875C33.1819 22.6083 32.1736 22.1417 31.2902 21.475C30.4236 20.8083 29.7402 19.8833 29.2402 18.7C28.7402 17.5167 28.4902 16 28.4902 14.15C28.4902 12.3667 28.7569 10.8917 29.2902 9.725C29.8236 8.54167 30.5319 7.60833 31.4152 6.925C32.3152 6.24167 33.3069 5.75833 34.3902 5.475C35.4902 5.19167 36.5986 5.05 37.7152 5.05C38.5319 5.05 39.2402 5.09167 39.8402 5.175C40.4402 5.25833 41.0152 5.36667 41.5652 5.5L44.9652 7.475L43.2152 11.35L37.6902 9.4C36.8902 9.4 36.1486 9.55833 35.4652 9.875C34.7986 10.1917 34.2569 10.7 33.8402 11.4C33.4402 12.0833 33.2402 13.0083 33.2402 14.175C33.2402 16.0583 33.6569 17.3833 34.4902 18.15C35.3402 18.9 36.4986 19.275 37.9652 19.275C38.7152 19.275 39.2986 19.2417 39.7152 19.175C40.1486 19.0917 40.4819 19.025 40.7152 18.975V17.075H37.5402V13.375H45.4902L45.7652 14.875L45.2152 16.95V22.2C45.0319 22.2667 44.6152 22.3833 43.9652 22.55C43.3319 22.7167 42.4986 22.875 41.4652 23.025C40.4486 23.175 39.2819 23.25 37.9652 23.25ZM48.5273 23V9.3L48.2773 6.8L48.5273 5.3H53.0523V23H48.5273ZM60.041 23V9.3L55.041 9.55V5.3H69.666V9.55L64.541 9.3V19L64.816 21.5L64.541 23H60.041ZM68.7559 23L69.9559 18.775V15.6L71.8059 14.85L75.0559 5.325H81.5309L85.5559 16.525L87.4809 20.075V23H83.0559L81.8059 19H74.5309L73.4559 23H68.7559ZM76.1809 15.15H80.4309L78.5309 9.425H78.0059L76.1809 15.15ZM89.7197 23L89.2197 21.5L89.7197 19V5.3H94.2197V15.575L93.9697 19H94.4697L98.9447 18.75L100.72 18.5L102.92 21.4L101.695 23H89.7197ZM0.25 50L1.45 45.775V42.6L3.3 41.85L6.55 32.325H13.025L17.05 43.525L18.975 47.075V50H14.55L13.3 46H6.025L4.95 50H0.25ZM7.675 42.15H11.925L10.025 36.425H9.5L7.675 42.15ZM21.2139 50V36.325L20.7139 33.8L21.2139 32.3H29.2139C30.4305 32.3 31.5222 32.4917 32.4889 32.875C33.4722 33.2417 34.2472 33.875 34.8139 34.775C35.3972 35.6583 35.6889 36.8833 35.6889 38.45C35.6889 40.0167 35.3805 41.2583 34.7639 42.175C34.1472 43.075 33.2889 43.7167 32.1889 44.1C31.1055 44.4833 29.8639 44.675 28.4639 44.675H25.7139V45.975L25.9639 48.475L25.7139 50H21.2139ZM25.7139 40.75H28.1639C29.0305 40.75 29.7222 40.5917 30.2389 40.275C30.7555 39.9417 31.0139 39.3333 31.0139 38.45C31.0139 37.8333 30.8889 37.375 30.6389 37.075C30.3889 36.7583 30.0389 36.55 29.5889 36.45C29.1555 36.35 28.6472 36.3 28.0639 36.3H25.4639L25.7139 40.75ZM38.9385 50V36.325L38.4385 33.8L38.9385 32.3H46.9385C48.1551 32.3 49.2468 32.4917 50.2135 32.875C51.1968 33.2417 51.9718 33.875 52.5385 34.775C53.1218 35.6583 53.4135 36.8833 53.4135 38.45C53.4135 40.0167 53.1051 41.2583 52.4885 42.175C51.8718 43.075 51.0135 43.7167 49.9135 44.1C48.8301 44.4833 47.5885 44.675 46.1885 44.675H43.4385V45.975L43.6885 48.475L43.4385 50H38.9385ZM43.4385 40.75H45.8885C46.7551 40.75 47.4468 40.5917 47.9635 40.275C48.4801 39.9417 48.7385 39.3333 48.7385 38.45C48.7385 37.8333 48.6135 37.375 48.3635 37.075C48.1135 36.7583 47.7635 36.55 47.3135 36.45C46.8801 36.35 46.3718 36.3 45.7885 36.3H43.1885L43.4385 40.75ZM71.1439 50.25C69.8606 50.25 68.6439 50.125 67.4939 49.875C66.3606 49.6083 65.3523 49.1417 64.4689 48.475C63.6023 47.8083 62.9189 46.8833 62.4189 45.7C61.9189 44.5167 61.6689 43 61.6689 41.15C61.6689 39.3667 61.9356 37.8917 62.4689 36.725C63.0023 35.5417 63.7106 34.6083 64.5939 33.925C65.4939 33.2417 66.4856 32.7583 67.5689 32.475C68.6689 32.1917 69.7773 32.05 70.8939 32.05C71.7106 32.05 72.4189 32.0917 73.0189 32.175C73.6189 32.2583 74.1939 32.3667 74.7439 32.5L78.1439 34.475L76.3939 38.35L70.8689 36.4C70.0689 36.4 69.3273 36.5583 68.6439 36.875C67.9773 37.1917 67.4356 37.7 67.0189 38.4C66.6189 39.0833 66.4189 40.0083 66.4189 41.175C66.4189 43.0583 66.8356 44.3833 67.6689 45.15C68.5189 45.9 69.6773 46.275 71.1439 46.275C71.8939 46.275 72.4773 46.2417 72.8939 46.175C73.3273 46.0917 73.6606 46.025 73.8939 45.975V44.075H70.7189V40.375H78.6689L78.9439 41.875L78.3939 43.95V49.2C78.2106 49.2667 77.7939 49.3833 77.1439 49.55C76.5106 49.7167 75.6773 49.875 74.6439 50.025C73.6273 50.175 72.4606 50.25 71.1439 50.25ZM81.9561 50V36.325L81.4561 33.8L81.9561 32.3H89.9561C91.1727 32.3 92.2644 32.4917 93.2311 32.875C94.2144 33.2417 94.9894 33.875 95.5561 34.775C96.1394 35.6583 96.4311 36.8833 96.4311 38.45C96.4311 39.8667 96.1727 41.0167 95.6561 41.9C95.1394 42.7667 94.4227 43.4167 93.5061 43.85L93.7561 44.125L96.2311 47.225L97.6561 48.5V50H92.0311L88.5311 44.675H86.4561V45.975L86.7061 48.475L86.4561 50H81.9561ZM86.4561 40.75H88.9061C89.7727 40.75 90.4644 40.5917 90.9811 40.275C91.4977 39.9417 91.7561 39.3333 91.7561 38.45C91.7561 37.8333 91.6311 37.375 91.3811 37.075C91.1311 36.7583 90.7811 36.55 90.3311 36.45C89.8977 36.35 89.3894 36.3 88.8061 36.3H86.2061L86.4561 40.75ZM98.1504 50L99.3504 45.775V42.6L101.2 41.85L104.45 32.325H110.925L114.95 43.525L116.875 47.075V50H112.45L111.2 46H103.925L102.85 50H98.1504ZM105.575 42.15H109.825L107.925 36.425H107.4L105.575 42.15ZM119.114 50V36.325L118.614 33.825L119.114 32.3H126.564C127.764 32.3 128.914 32.4167 130.014 32.65C131.131 32.8667 132.123 33.2833 132.989 33.9C133.873 34.5167 134.564 35.4 135.064 36.55C135.581 37.7 135.839 39.1917 135.839 41.025C135.839 42.8583 135.581 44.3667 135.064 45.55C134.548 46.7167 133.848 47.625 132.964 48.275C132.081 48.925 131.081 49.375 129.964 49.625C128.864 49.875 127.731 50 126.564 50H119.114ZM123.664 46H126.564C128.031 46 129.156 45.6167 129.939 44.85C130.723 44.0667 131.114 42.7917 131.114 41.025C131.114 39.2583 130.714 38.0333 129.914 37.35C129.131 36.65 128.014 36.3 126.564 36.3H123.664V46ZM138.841 50L138.341 48.5L138.841 46V32.3H151.216L152.466 33.05L150.816 36.55L148.566 36.3H143.341V39.05H150.066V42.925H147.116L143.341 42.675V46H150.816L153.791 48.4L152.316 50H138.841Z" fill="black"/>
<defs>
<linearGradient id="paint0_linear_230_6" x1="77.5" y1="0" x2="77.5" y2="54" gradientUnits="userSpaceOnUse">
<stop stop-color="#5F958F"/>
<stop offset="1" stop-color="#5F958F" stop-opacity="0"/>
</linearGradient>
</defs>
</svg>
